<svg width="186" height="210" viewBox="0 0 186 210" fill="none" xmlns="http://www.w3.org/2000/svg">
<path d="M18.9574 106.5L92.5 0.875036L166.043 106.5H112.75H58.5H18.9574Z" fill="#008000" stroke="black"/>
<path d="M1.09039 182.5L93 75.7663L184.91 182.5H1.09039Z" fill="#008000" stroke="black"/>
<rect x="70.5" y="182.5" width="43" height="27" fill="#A5572A" stroke="black"/>
<path d="M61.4785 105.626L122.019 105.995L123.001 105.811L63.5018 105.639L61.4785 105.626Z" fill="#008000"/>
<path d="M92.8012 75.0298L92.8011 74L123.5 106L61.5001 106L62.0001 105.5L92.8012 75.0298Z" fill="#008000"/>
<path d="M88 41C88 44.866 84.866 48 81 48C77.134 48 74 44.866 74 41C74 37.134 77.134 34 81 34C84.866 34 88 37.134 88 41Z" fill="#FF0000"/>
<path d="M130 74C130 77.866 126.866 81 123 81C119.134 81 116 77.866 116 74C116 70.134 119.134 67 123 67C126.866 67 130 70.134 130 74Z" fill="#FFFF00"/>
<path d="M61 88C61 91.866 57.866 95 54 95C50.134 95 47 91.866 47 88C47 84.134 50.134 81 54 81C57.866 81 61 84.134 61 88Z" fill="#FFFF00"/>
</svg>
